<?xml version="1.0" encoding="UTF-8"?>
<svg version="1.1" xmlns="http://www.w3.org/2000/svg" width="2000" height="2000">
<path d="M0 0 C5.92620933 0.00688521 11.85239797 -0.00055705 17.77860362 -0.00743115 C30.02509665 -0.02113527 42.27155209 -0.02082837 54.51804841 -0.01258852 C66.90927113 -0.00430237 79.30046919 -0.00261957 91.69169343 -0.00880052 C92.47758334 -0.00918804 93.26347326 -0.00957556 94.07317802 -0.00997482 C97.27456982 -0.01157483 100.47596159 -0.01322098 103.67735334 -0.01492565 C133.41979881 -0.03075146 163.16222775 -0.03188847 192.9046756 -0.02348329 C221.56109063 -0.01538904 250.21749784 -0.01222149 278.87391388 -0.01604463 C280.67668571 -0.01627707 282.47945754 -0.01650854 284.28222936 -0.01673904 C291.52756863 -0.01767052 298.7729079 -0.01862652 306.01824716 -0.01961833 C326.26957448 -0.0223688 346.52090183 -0.02408101 366.77222931 -0.02497675 C367.69428062 -0.02501768 368.61633192 -0.02505862 369.56632417 -0.0251008 C398.92882419 -0.02632788 428.29132183 -0.02295184 457.65382111 -0.01642801 C459.08147764 -0.01611189 459.08147764 -0.01611189 460.53797571 -0.01578938 C475.99226062 -0.0123549 491.44654548 -0.00869634 506.90083034 -0.00501886 C568.18703079 0.00954915 629.47321157 0.00887297 690.75941193 -0.00571062 C706.20606718 -0.00937445 721.65272244 -0.01300772 737.09937775 -0.01642801 C738.05059881 -0.01663936 739.00181986 -0.0168507 739.9818658 -0.01706845 C769.3149007 -0.02354097 798.64793396 -0.02627908 827.98096955 -0.02497675 C828.90233619 -0.02493599 829.82370284 -0.02489524 830.77298968 -0.02485325 C851.00215167 -0.02391565 871.23131349 -0.0220144 891.46047531 -0.01924524 C898.69917768 -0.0182579 905.93788006 -0.01731864 913.17658245 -0.01639311 C914.97723702 -0.01616094 916.7778916 -0.01592475 918.57854617 -0.01568452 C947.22181064 -0.01187359 975.86506653 -0.0161404 1004.50832987 -0.02423495 C1034.16833553 -0.03252517 1063.82832143 -0.02943428 1093.48832428 -0.01364106 C1096.67938465 -0.01198415 1099.87044503 -0.01037402 1103.06150544 -0.00880052 C1103.8445989 -0.0084099 1104.62769236 -0.00801928 1105.43451592 -0.00761683 C1117.7872867 -0.00172129 1130.14003272 -0.00579618 1142.49280125 -0.01410754 C1154.66662608 -0.02208291 1166.84040952 -0.0191863 1179.01422915 -0.00506528 C1185.51445548 0.00218893 1192.01460829 0.00457439 1198.51483357 -0.00628323 C1259.05956859 -0.10005414 1259.05956859 -0.10005414 1288.93909943 6.07290266 C1290.19956086 6.32563948 1291.46002228 6.5783763 1292.75867951 6.8387718 C1359.80464442 20.56500105 1429.77497988 52.62376347 1477.69056427 102.70180891 C1479.41597774 104.42472395 1481.21656689 105.99204352 1483.07581818 107.56899641 C1487.42526005 111.35261272 1491.38683738 115.41996268 1495.31409943 119.63540266 C1496.01502717 120.38483137 1496.7159549 121.13426008 1497.43812287 121.90639876 C1502.67372597 127.54371364 1507.60899588 133.34700676 1512.37659943 139.38540266 C1513.27931078 140.4757998 1514.184409 141.56422378 1515.09144318 142.65102766 C1568.67508523 207.36069279 1597.58434691 292.50400613 1597.5080272 376.08166121 C1597.50967873 378.29144993 1597.51176588 380.50123835 1597.5142473 382.71102629 C1597.51979922 388.78618144 1597.51914424 394.86132245 1597.51746971 400.93647931 C1597.51681307 406.86300657 1597.52085298 412.78953019 1597.52473373 418.71605581 C1597.53259246 430.98197634 1597.53569503 443.24789396 1597.53617966 455.51381682 C1597.53668249 467.94119914 1597.53933391 480.3685782 1597.54458725 492.79595946 C1597.54491739 493.58146209 1597.54524752 494.36696472 1597.54558766 495.17627046 C1597.5469377 498.37563616 1597.54830037 501.57500186 1597.54967976 504.77436756 C1597.56597198 542.62997574 1597.57236724 580.4855833 1597.57712763 618.3411944 C1597.57951213 637.19713952 1597.58321587 656.05308429 1597.58716473 674.90902914 C1597.59982888 735.41558738 1597.61061235 795.92214561 1597.61400519 856.42870516 C1597.61416743 859.31991747 1597.61433299 862.21112977 1597.61449957 865.10234208 C1597.61483337 870.90055939 1597.61516385 876.6987767 1597.61549413 882.496994 C1597.61588103 889.28506647 1597.61627063 896.07313894 1597.6166652 902.86121141 C1597.61677762 904.80400112 1597.61688903 906.74679083 1597.61699945 908.68958054 C1597.6205478 971.0663856 1597.63562195 1033.44317914 1597.65893719 1095.8199798 C1597.67568635 1140.64825479 1597.69115704 1185.47652759 1597.69567215 1230.30480574 C1597.69581238 1231.68864755 1597.69581238 1231.68864755 1597.69595544 1233.10044577 C1597.69797482 1253.35639431 1597.69913059 1273.61234282 1597.69948403 1293.86829146 C1597.6996202 1301.11701309 1597.69982919 1308.36573473 1597.70007728 1315.61445636 C1597.70013884 1317.41768282 1597.70019716 1319.22090927 1597.70025223 1321.02413573 C1597.70117082 1349.71907351 1597.7111242 1378.41399923 1597.72570972 1407.10893304 C1597.74034949 1436.02641042 1597.74535285 1464.94387303 1597.73729018 1493.86135345 C1597.73617494 1497.86504524 1597.73516424 1501.86873705 1597.73421586 1505.87242888 C1597.73402589 1506.657198 1597.73383592 1507.44196713 1597.7336402 1508.25051714 C1597.73091582 1520.63298619 1597.73821861 1533.01542777 1597.74978922 1545.39789085 C1597.76097949 1557.5997243 1597.76131213 1569.80151926 1597.75041904 1582.00335336 C1597.74489113 1588.51958956 1597.74427158 1595.03575049 1597.75692776 1601.55198072 C1597.93376112 1698.84650351 1572.94478117 1791.81145543 1505.37659943 1869.38540266 C1504.63152131 1870.2297386 1503.88644318 1871.07407454 1503.11878693 1871.94399641 C1500.889251 1874.44123648 1498.6346354 1876.91392051 1496.37659943 1879.38540266 C1495.47645385 1880.39024745 1494.57673536 1881.39547495 1493.67738068 1882.40102766 C1477.72385471 1900.11333788 1459.63148298 1915.3976167 1440.37659943 1929.38540266 C1439.8200467 1929.79000715 1439.26349396 1930.19461165 1438.69007599 1930.61147688 C1391.19810004 1964.87876415 1335.28565907 1987.15552425 1277.62659943 1996.63540266 C1276.71926056 1996.78646467 1275.8119217 1996.93752669 1274.87708771 1997.09316633 C1256.83736059 1999.88461652 1238.8015011 2000.68136386 1220.57570374 2000.63987826 C1218.35572744 2000.64227431 1216.13575194 2000.64554346 1213.91577804 2000.64959486 C1207.85427427 2000.65815328 1201.79283302 2000.65441421 1195.73132841 2000.64853913 C1189.80534554 2000.64478118 1183.87937329 2000.65050679 1177.95339331 2000.65588672 C1165.69852296 2000.66667451 1153.44366802 2000.66805649 1141.18879426 2000.66418837 C1128.78131445 2000.66030344 1116.37384611 2000.66078079 1103.96636689 2000.66649817 C1103.18070651 2000.66685699 1102.39504613 2000.66721582 1101.58557786 2000.66758552 C1098.38533103 2000.66906054 1095.18508422 2000.67056495 1091.98483743 2000.67210698 C1059.54800238 2000.68771797 1027.11117522 2000.69042354 994.67433709 2000.68795092 C990.19672219 2000.68761245 985.71910729 2000.68729036 981.24149239 2000.68698524 C979.90732403 2000.68689367 979.90732403 2000.68689367 978.54620278 2000.68680026 C958.81025955 2000.68552684 939.07431739 2000.68813253 919.33837447 2000.6915113 C914.8281241 2000.69228205 910.31787373 2000.69302679 905.80762336 2000.69377632 C903.99738431 2000.69407801 902.18714527 2000.69437989 900.37690623 2000.69468196 C899.47958306 2000.69483164 898.58225989 2000.69498132 897.65774511 2000.69513554 C895.8426578 2000.69543907 894.02757048 2000.69574375 892.21248317 2000.69604958 C840.72713162 2000.70471962 789.24178103 2000.70936871 737.75642884 2000.70510195 C736.8035963 2000.70502389 735.85076376 2000.70494584 734.86905751 2000.70486541 C724.24466844 2000.70399266 713.62027938 2000.7030634 702.99589032 2000.70211478 C702.03671845 2000.70202927 701.07754658 2000.70194376 700.08930889 2000.70185566 C692.12080418 2000.70114499 692.12080418 2000.70114499 688.45245454 2000.70081343 C627.11271045 2000.69527876 565.77298142 2000.7028179 504.43324006 2000.7215843 C488.97826623 2000.7263068 473.5232924 2000.73098743 458.06831849 2000.73542116 C457.11660161 2000.73569449 456.16488473 2000.73596781 455.18432795 2000.73624941 C425.83537063 2000.74462529 396.48641456 2000.7493008 367.13745606 2000.75012873 C366.21555246 2000.7501551 365.29364886 2000.75018146 364.34380879 2000.75020863 C344.10246474 2000.7507495 323.86112078 2000.75037676 303.61977676 2000.74916891 C296.37648054 2000.74874332 289.13318431 2000.74837818 281.88988808 2000.74803947 C280.08805545 2000.74795417 278.28622283 2000.74786523 276.4843902 2000.74777265 C247.81858199 2000.74632613 219.15278404 2000.75343553 190.4869783 2000.76477661 C160.7983062 2000.7764463 131.10965235 2000.77696887 101.42098016 2000.76493319 C98.22666694 2000.76368146 95.03235372 2000.76247796 91.83804047 2000.76131247 C91.0541444 2000.76102217 90.27024833 2000.76073188 89.46259783 2000.76043279 C77.09694823 2000.75612311 64.73132475 2000.76181067 52.36567925 2000.77175266 C40.17895978 2000.78133715 27.99228025 2000.78005184 15.80556305 2000.76754644 C9.29828124 2000.76115646 2.79107382 2000.75964943 -3.71620446 2000.77140977 C-35.10956174 2000.82431282 -65.93041094 2000.54624489 -96.81090057 1994.19790266 C-97.92523971 1993.97488981 -97.92523971 1993.97488981 -99.06209075 1993.74737166 C-131.61142454 1987.20862144 -162.81974149 1975.9441685 -192.62340057 1961.38540266 C-193.44711151 1960.98385969 -194.27082244 1960.58231673 -195.11949432 1960.16860579 C-225.56706241 1945.14480577 -253.98293791 1925.2347707 -278.77183807 1902.04946516 C-280.6737329 1900.27262643 -282.59587398 1898.51721595 -284.53746307 1896.78384016 C-311.20756474 1872.92852495 -333.94677893 1843.41911081 -351.62340057 1812.38540266 C-352.00915252 1811.71927962 -352.39490448 1811.05315657 -352.79234588 1810.36684798 C-385.46431648 1753.88087467 -402.81437388 1689.89742095 -402.75482833 1624.68914412 C-402.75647987 1622.4793554 -402.75856701 1620.26956697 -402.76104844 1618.05977903 C-402.76660036 1611.98462389 -402.76594537 1605.90948288 -402.76427085 1599.83432601 C-402.76361421 1593.90779876 -402.76765412 1587.98127513 -402.77153487 1582.05474952 C-402.7793936 1569.78882899 -402.78249617 1557.52291136 -402.7829808 1545.25698851 C-402.78348363 1532.82960619 -402.78613505 1520.40222712 -402.79138839 1507.97484587 C-402.79171853 1507.18934324 -402.79204866 1506.40384061 -402.7923888 1505.59453487 C-402.79373884 1502.39516916 -402.79510151 1499.19580346 -402.7964809 1495.99643777 C-402.81277312 1458.14082958 -402.81916837 1420.28522203 -402.82392877 1382.42961093 C-402.82631326 1363.57366581 -402.83001701 1344.71772104 -402.83396587 1325.86177619 C-402.84663002 1265.35521794 -402.85741348 1204.84865971 -402.86080633 1144.34210017 C-402.86096857 1141.45088786 -402.86113413 1138.55967555 -402.86130071 1135.66846324 C-402.86163451 1129.87024594 -402.86196499 1124.07202863 -402.86229527 1118.27381132 C-402.86268216 1111.48573885 -402.86307177 1104.69766638 -402.86346633 1097.90959392 C-402.86357875 1095.96680421 -402.86369017 1094.0240145 -402.86380059 1092.08122479 C-402.86734894 1029.70441973 -402.88242309 967.32762619 -402.90573833 904.95082552 C-402.92248749 860.12255054 -402.93795818 815.29427774 -402.94247329 770.46599959 C-402.94261352 769.08215777 -402.94261352 769.08215777 -402.94275658 767.67035956 C-402.94477596 747.41441102 -402.94593173 727.15846251 -402.94628517 706.90251387 C-402.94642133 699.65379223 -402.94663032 692.4050706 -402.94687842 685.15634897 C-402.94693998 683.35312251 -402.9469983 681.54989605 -402.94705337 679.74666959 C-402.94797195 651.05173182 -402.95792534 622.3568061 -402.97251086 593.66187228 C-402.98715063 564.74439491 -402.99215399 535.8269323 -402.98409131 506.90945187 C-402.98297607 502.90576009 -402.98196538 498.90206828 -402.98101699 494.89837645 C-402.98082703 494.11360732 -402.98063706 493.32883819 -402.98044133 492.52028818 C-402.97771696 480.13781913 -402.98501974 467.75537755 -402.99659036 455.37291447 C-403.00778063 443.17108102 -403.00811327 430.96928606 -402.99722018 418.76745196 C-402.99169227 412.25121577 -402.99107272 405.73505483 -403.0037289 399.21882461 C-403.15943194 313.55029969 -384.63025903 234.76859841 -335.62340057 163.38540266 C-335.20091033 162.76568587 -334.7784201 162.14596907 -334.34312713 161.50747298 C-324.99624205 147.85243458 -314.40777184 135.14195167 -303.11168182 123.06118391 C-300.85024001 120.62933518 -298.6739405 118.14372117 -296.49840057 115.63540266 C-286.56172664 104.57281064 -275.28680423 94.57871663 -263.62340057 85.38540266 C-262.47474355 84.44715826 -261.3277117 83.506922 -260.18199432 82.56509016 C-251.32662979 75.31798165 -242.202268 68.64402036 -232.62340057 62.38540266 C-231.47605438 61.63371809 -231.47605438 61.63371809 -230.30552948 60.86684798 C-159.8957956 15.12403362 -82.83687795 -0.13836612 0 0 Z " fill="#000000" transform="translate(402.6234005689621,-0.38540266267955303)"/>
<path d="M0 0 C3.7421399 -0.00219066 7.48398585 -0.02044679 11.22607422 -0.03930664 C26.54428452 -0.07552258 41.64545341 0.55686106 56.87841797 2.18530273 C57.6102832 2.26336151 58.34214844 2.34142029 59.09619141 2.42184448 C63.30380183 2.88322417 67.49782279 3.42027284 71.69091797 3.99780273 C72.94461182 4.16957031 74.19830566 4.34133789 75.48999023 4.51831055 C149.77865086 14.96873176 224.10371823 41.87765489 280.87841797 92.18530273 C281.80009766 92.99612305 282.72177734 93.80694336 283.67138672 94.64233398 C296.90890598 106.52871335 310.11658696 118.97890737 320.87841797 133.18530273 C321.89925006 134.49101025 322.92150611 135.79560516 323.94482422 137.09936523 C335.13081467 151.43197857 344.94155399 166.35791552 353.87841797 182.18530273 C354.27496582 182.87978516 354.67151367 183.57426758 355.08007812 184.28979492 C370.65186109 211.78740921 381.9491332 242.21834294 388.44287109 273.1159668 C388.90173024 275.29606218 389.38266904 277.47073706 389.86279297 279.64624023 C392.00928098 289.61878843 393.6297262 299.64974377 395.06591797 309.74780273 C395.23285156 310.89345703 395.39978516 312.03911133 395.57177734 313.21948242 C397.97679875 330.80187146 398.02795867 348.48829248 398.02558899 366.20413208 C398.02889663 368.4739017 398.03262405 370.74367074 398.03673047 373.01343906 C398.04665575 379.20047077 398.05045178 385.38749279 398.05311978 391.57453132 C398.05664632 397.57839125 398.06479595 403.58224404 398.07266371 409.58609943 C398.09340096 425.64816015 398.10396033 441.71022258 398.11279332 457.77229354 C398.11701461 465.38565128 398.12223448 472.99900824 398.12747785 480.61236532 C398.1453574 506.72543699 398.16034951 532.83850891 398.16779804 558.95158577 C398.16827278 560.58759846 398.16874867 562.22361115 398.1692257 563.85962384 C398.16958027 565.07645988 398.16958027 565.07645988 398.169942 566.31787846 C398.17114306 570.42716963 398.17235855 574.53646079 398.17358398 578.64575195 C398.17382413 579.46121523 398.17406428 580.27667851 398.17431171 581.1168528 C398.1821976 607.53223248 398.20562024 633.94756717 398.23813993 660.36292722 C398.27254036 688.3575956 398.29215845 716.35223768 398.29544228 744.34692752 C398.29585975 747.42785765 398.2963393 750.50878776 398.29686546 753.58971786 C398.29698865 754.34820846 398.29711185 755.10669906 398.29723877 755.88817423 C398.29955775 768.02332744 398.31514376 780.15842778 398.33570731 792.29356223 C398.35609675 804.52113533 398.3613812 816.74864583 398.35193668 828.97623278 C398.34722203 835.58287147 398.34910525 842.18937655 398.36869812 848.79600143 C398.44371636 875.57438318 398.14088379 901.70353302 393.87841797 928.18530273 C393.53158122 930.47908922 393.18636564 932.77312151 392.84290028 935.06741524 C391.98032388 940.7986123 390.97801438 946.49504722 389.87841797 952.18530273 C389.63816895 953.4331958 389.63816895 953.4331958 389.39306641 954.70629883 C379.14903356 1005.9977436 354.91643917 1056.85460795 321.87841797 1097.18530273 C321.04568359 1098.20881836 320.21294922 1099.23233398 319.35498047 1100.28686523 C308.59870286 1113.33027133 297.00822463 1126.88131875 283.75341797 1137.43530273 C280.22169569 1140.27123733 276.75037008 1143.15181337 273.33544922 1146.12744141 C233.73602736 1180.42860728 181.98417561 1204.89344461 131.62841797 1218.18530273 C130.66929504 1218.44009903 130.66929504 1218.44009903 129.6907959 1218.70004272 C117.45089164 1221.93796171 105.12578122 1224.51433512 92.65429688 1226.69458008 C90.23772276 1227.12178447 87.82961428 1227.57713203 85.42138672 1228.04858398 C70.79913276 1230.81808099 55.88000121 1231.79031813 41.06292725 1233.00099182 C39.41924347 1233.13967233 37.7763274 1233.28749861 36.1338501 1233.43980408 C29.15321692 1234.06823082 22.22964171 1234.37059049 15.22216797 1234.42358398 C14.13767365 1234.43333252 13.05317932 1234.44308105 11.93582153 1234.453125 C-16.30819783 1234.65393388 -44.08629279 1233.67660468 -72.12158203 1230.18530273 C-72.89912842 1230.08864319 -73.6766748 1229.99198364 -74.4777832 1229.89239502 C-120.46834492 1224.09670777 -165.4628298 1211.69171643 -207.12158203 1191.18530273 C-208.14880371 1190.6812793 -209.17602539 1190.17725586 -210.234375 1189.65795898 C-230.39697499 1179.67776754 -249.63257598 1168.39045559 -267.12158203 1154.18530273 C-267.99685547 1153.50081055 -268.87212891 1152.81631836 -269.77392578 1152.11108398 C-274.95833338 1148.04503858 -279.8970545 1143.76802352 -284.76220703 1139.32592773 C-286.81025163 1137.46776807 -288.89115173 1135.66502853 -290.99658203 1133.87280273 C-299.31424783 1126.61804352 -307.00806965 1118.61443245 -314.12158203 1110.18530273 C-314.91693359 1109.2790918 -315.71228516 1108.37288086 -316.53173828 1107.43920898 C-340.0256507 1080.51074114 -359.06470138 1048.42036112 -372.12158203 1015.18530273 C-372.50266113 1014.22221191 -372.88374023 1013.25912109 -373.27636719 1012.2668457 C-378.99443705 997.68280197 -383.89939816 983.12717392 -387.47900391 967.8737793 C-388.08749212 965.3279312 -388.74518119 962.80060129 -389.41845703 960.27124023 C-392.59337751 947.92486688 -394.29410559 935.44038485 -395.87158203 922.81030273 C-395.97858429 921.95880646 -396.08558655 921.10731018 -396.1958313 920.23001099 C-396.50656079 917.72895653 -396.80827887 915.22700429 -397.10595703 912.72436523 C-397.23843086 911.64053307 -397.23843086 911.64053307 -397.37358093 910.5348053 C-399.12461898 895.34708486 -399.26919406 880.18656434 -399.26202393 864.92033386 C-399.26461261 862.69582691 -399.26762715 860.47132041 -399.27102733 858.24681455 C-399.2790419 852.17088031 -399.28088379 846.09495791 -399.28162479 840.01901901 C-399.28329371 834.12660605 -399.28961855 828.23419912 -399.29570321 822.34178934 C-399.31170175 806.57043589 -399.31766011 790.79908348 -399.32245195 775.02772338 C-399.32479474 767.55194193 -399.32839818 760.07616124 -399.33214733 752.60038039 C-399.34497929 726.96043866 -399.35569726 701.32049735 -399.35914993 675.68055248 C-399.35937156 674.07340229 -399.35959334 672.4662521 -399.35981528 670.85910191 C-399.36003592 669.24828258 -399.3602564 667.63746326 -399.36047673 666.02664393 C-399.36091926 662.79559465 -399.36136638 659.56454537 -399.36181641 656.33349609 C-399.3619258 655.5323941 -399.36203519 654.73129211 -399.36214789 653.9059143 C-399.36577308 627.96949174 -399.3816746 602.03309723 -399.40500677 576.0966854 C-399.4296858 548.61230086 -399.44332656 521.12793232 -399.44451785 493.64353639 C-399.44468928 490.61757012 -399.44490469 487.59160385 -399.44515228 484.56563759 C-399.44520805 483.82067384 -399.44526382 483.07571009 -399.44532128 482.30817168 C-399.4464649 470.39548961 -399.45742793 458.48283665 -399.47203934 446.57016436 C-399.48651304 434.5606371 -399.48958078 422.55114655 -399.48159936 410.54161295 C-399.47757614 404.05425806 -399.47846024 397.56698022 -399.49265671 391.07963562 C-399.62549726 326.55072993 -393.96382104 263.38739378 -366.12158203 204.18530273 C-365.68120605 203.24557617 -365.24083008 202.30584961 -364.78710938 201.33764648 C-354.65321582 179.9348633 -342.8546103 159.74880619 -328.12158203 141.18530273 C-327.41646484 140.28038086 -326.71134766 139.37545898 -325.98486328 138.44311523 C-324.05968128 135.99856364 -322.09571327 133.59043338 -320.12158203 131.18530273 C-319.40873047 130.28682617 -318.69587891 129.38834961 -317.96142578 128.46264648 C-311.77684547 120.8666881 -305.02597974 113.87487802 -298.12158203 106.93530273 C-296.75138916 105.55133301 -296.75138916 105.55133301 -295.35351562 104.1394043 C-289.24859529 98.06176243 -282.86158563 92.54334895 -276.12158203 87.18530273 C-274.87831576 86.16084152 -273.63710629 85.13387365 -272.39892578 84.10327148 C-263.07575246 76.44123348 -253.29949931 69.66088909 -243.12158203 63.18530273 C-242.49848145 62.78746582 -241.87538086 62.38962891 -241.23339844 61.97973633 C-229.61894703 54.62869671 -217.40429866 48.33391177 -205.12158203 42.18530273 C-204.26806152 41.75604492 -203.41454102 41.32678711 -202.53515625 40.88452148 C-176.27090592 27.85323367 -147.6482605 18.70989127 -119.12158203 12.18530273 C-117.85338623 11.8870459 -117.85338623 11.8870459 -116.55957031 11.58276367 C-98.07557553 7.2631957 -79.21296794 4.67609988 -60.37158203 2.49780273 C-59.36933594 2.37848389 -58.36708984 2.25916504 -57.33447266 2.13623047 C-38.30369656 0.04472035 -19.12246909 -0.00124739 0 0 Z " fill="#FE3265" transform="translate(1500.12158203125,398.814697265625)"/>
<path d="M0 0 C3.59245664 0.01073978 7.18441353 0.00000746 10.77685547 -0.01269531 C31.69849175 -0.02586768 52.62189678 0.99142611 73.34326172 4.01074219 C75.1110498 4.26343872 75.1110498 4.26343872 76.91455078 4.52124023 C170.94589699 18.41307837 262.25271029 60.42740621 322.09326172 136.26074219 C323.29402344 137.76894531 323.29402344 137.76894531 324.51904297 139.30761719 C330.83917335 147.32537977 336.60491544 155.65447649 342.09326172 164.26074219 C342.46273926 164.83985352 342.8322168 165.41896484 343.21289062 166.015625 C350.58301761 177.68471695 356.91176986 189.93098112 363.09326172 202.26074219 C363.52783691 203.11958008 363.96241211 203.97841797 364.41015625 204.86328125 C387.04906694 250.14110262 398.09326172 302.89327158 398.09326172 353.26074219 C329.45326172 353.26074219 260.81326172 353.26074219 190.09326172 353.26074219 C189.76326172 348.97074219 189.43326172 344.68074219 189.09326172 340.26074219 C183.46081504 295.63443392 165.99361435 254.89322138 129.76123047 226.64355469 C83.52838737 191.31916849 22.23490711 182.02137389 -34.53173828 189.32324219 C-38.01908531 189.85276778 -41.45799953 190.52216274 -44.90673828 191.26074219 C-46.0053418 191.49180664 -47.10394531 191.72287109 -48.23583984 191.9609375 C-63.4705435 195.26019912 -77.8839215 199.42637415 -91.90673828 206.26074219 C-92.69338867 206.63569824 -93.48003906 207.0106543 -94.29052734 207.39697266 C-110.28273355 215.09181977 -124.0844686 224.99317968 -136.90673828 237.26074219 C-138.20804687 238.44990234 -138.20804687 238.44990234 -139.53564453 239.66308594 C-156.79003897 255.98481041 -167.93422144 277.1484576 -175.90673828 299.26074219 C-176.16084473 299.96537598 -176.41495117 300.67000977 -176.67675781 301.39599609 C-181.29479874 314.60186017 -183.13812511 328.43027323 -184.90673828 342.26074219 C-184.99036811 342.9032012 -185.07399793 343.54566021 -185.16016199 344.20758767 C-185.82821962 349.69521585 -186.04918199 355.0777358 -186.03537273 360.60233688 C-186.03800229 361.95326613 -186.03800229 361.95326613 -186.04068497 363.33148688 C-186.04532684 366.34118505 -186.04288413 369.35083453 -186.04045105 372.36053467 C-186.04231995 374.54360501 -186.04462097 376.72667502 -186.04731637 378.9097445 C-186.05343132 384.90310696 -186.05330112 390.89645547 -186.052122 396.88982034 C-186.05191791 403.35638408 -186.05743768 409.82294335 -186.06217957 416.289505 C-186.07070293 428.95871886 -186.0732474 441.62792874 -186.07379194 454.29714516 C-186.07425187 464.59995545 -186.07631224 474.90276423 -186.07949257 485.20557404 C-186.08039016 488.17370295 -186.08127997 491.14183187 -186.08216745 494.10996079 C-186.08238849 494.84791168 -186.08260954 495.58586257 -186.08283729 496.3461756 C-186.08899092 517.10187607 -186.09293793 537.85757601 -186.09249401 558.61327744 C-186.09247843 559.3956525 -186.09246285 560.17802757 -186.0924468 560.98411097 C-186.0923637 564.94927399 -186.09226466 568.914437 -186.0921621 572.87960002 C-186.09214215 573.66705478 -186.0921222 574.45450954 -186.09210165 575.26582656 C-186.09206122 576.85825447 -186.09201942 578.45068237 -186.09197626 580.04311027 C-186.09136406 604.79648695 -186.09886023 629.5498499 -186.11254883 654.30322266 C-186.12793278 682.13362248 -186.13651359 709.96401328 -186.13558561 737.79441762 C-186.13551098 740.7663188 -186.13546227 743.73821998 -186.13543129 746.71012115 C-186.13541964 747.44183967 -186.13540798 748.17355819 -186.13539597 748.92745 C-186.13536528 760.66939511 -186.14173352 772.41132826 -186.15036355 784.15326982 C-186.15886972 795.97184941 -186.15963645 807.79041017 -186.15325423 819.60899118 C-186.14999826 826.00341242 -186.14989882 832.39779062 -186.15860748 838.79220772 C-186.1665147 844.6588144 -186.16499825 850.52534419 -186.15632335 856.39194909 C-186.15479757 858.50173053 -186.15656927 860.61151783 -186.16218343 862.72129235 C-186.27395812 907.7484844 -177.00225194 953.17797198 -146.90673828 988.26074219 C-146.21966797 989.07027344 -145.53259766 989.87980469 -144.82470703 990.71386719 C-134.76967506 1002.23639031 -123.87795336 1011.26155291 -110.90673828 1019.26074219 C-110.29910645 1019.64472168 -109.69147461 1020.02870117 -109.06542969 1020.42431641 C-74.79243477 1041.90792322 -32.59495431 1047.74050339 7.09326172 1046.26074219 C8.08090515 1046.22466858 8.08090515 1046.22466858 9.08850098 1046.18786621 C35.75586385 1045.18586246 59.92852223 1041.4927476 85.09326172 1032.26074219 C86.26373047 1031.83921875 87.43419922 1031.41769531 88.64013672 1030.98339844 C124.71364495 1016.98249262 155.88566328 987.62778055 172.34326172 952.69824219 C173.27674429 950.55967053 174.19305134 948.41353102 175.09326172 946.26074219 C175.60630859 945.06835938 176.11935547 943.87597656 176.64794922 942.64746094 C181.79132039 930.46378221 185.11021547 918.12986302 186.69873047 904.99121094 C187.09326172 902.26074219 187.09326172 902.26074219 188.09326172 900.26074219 C188.30159791 897.46556502 188.46772791 894.68468129 188.59326172 891.88574219 C188.66252016 890.35692624 188.73532421 888.82826599 188.81201172 887.29980469 C188.84230469 886.62127441 188.87259766 885.94274414 188.90380859 885.24365234 C189.09326172 883.26074219 189.09326172 883.26074219 190.09326172 879.26074219 C258.73326172 879.26074219 327.37326172 879.26074219 398.09326172 879.26074219 C398.09326172 892.08167882 397.73366751 903.90059615 395.90576172 916.44824219 C395.67785583 918.06998117 395.44999184 919.69172605 395.22216797 921.31347656 C393.52258762 933.19717402 391.41270034 944.95180422 388.69189453 956.64746094 C388.11192658 959.1792623 387.57800993 961.7168049 387.05419922 964.26074219 C374.29476683 1024.25947404 342.44354679 1081.09893661 299.09326172 1124.26074219 C297.81901512 1125.55682221 296.54565902 1126.85377804 295.27294922 1128.15136719 C287.54174442 1136.00103038 279.83803638 1143.53311083 271.09326172 1150.26074219 C269.7338396 1151.34629433 268.37589122 1152.43369338 267.01904297 1153.52246094 C257.09665628 1161.43501717 246.94915088 1168.68654551 236.09326172 1175.26074219 C235.31708496 1175.73189453 234.5409082 1176.20304687 233.74121094 1176.68847656 C211.02475796 1190.34661285 187.08132609 1201.44573155 162.09326172 1210.26074219 C161.43226471 1210.4942337 160.7712677 1210.72772522 160.09024048 1210.96829224 C148.83303082 1214.91519985 137.52273472 1218.12603767 125.90576172 1220.82324219 C125.09099365 1221.01428528 124.27622559 1221.20532837 123.43676758 1221.40216064 C50.76719723 1238.36438433 -27.708058 1240.00765895 -100.90673828 1225.26074219 C-101.90075653 1225.06348541 -101.90075653 1225.06348541 -102.91485596 1224.86224365 C-181.85387355 1209.16362889 -259.93005246 1171.32148316 -311.90673828 1108.26074219 C-312.32358887 1107.75768555 -312.74043945 1107.25462891 -313.16992188 1106.73632812 C-325.77313726 1091.46527883 -336.97892321 1075.39201077 -346.90673828 1058.26074219 C-347.66639893 1056.9570166 -347.66639893 1056.9570166 -348.44140625 1055.62695312 C-367.53115885 1022.54744954 -380.32367255 986.656601 -387.90673828 949.26074219 C-388.10106445 948.3095752 -388.29539062 947.3584082 -388.49560547 946.37841797 C-395.12718156 913.18003053 -395.34605253 880.23637839 -395.28425324 846.52149653 C-395.27623427 840.51702289 -395.28251304 834.51257277 -395.28822981 828.50810054 C-395.30006879 815.49396192 -395.29513684 802.47987224 -395.28295154 789.46573639 C-395.27236254 778.07723227 -395.26788274 766.68874474 -395.26924706 755.30023575 C-395.26933109 754.54109801 -395.26941512 753.78196027 -395.26950169 752.99981835 C-395.26985401 749.91727761 -395.27023804 746.83473688 -395.27066727 743.75219615 C-395.27462083 714.91216766 -395.26196856 686.07216841 -395.24114071 657.23214828 C-395.22277136 631.67640529 -395.21696055 606.1206903 -395.22241211 580.56494141 C-395.22275855 578.9234176 -395.22310464 577.2818938 -395.2234504 575.64037 C-395.2236214 574.82878444 -395.22379239 574.01719888 -395.22396857 573.18101982 C-395.22482227 569.09456129 -395.22564604 565.00810275 -395.22643757 560.92164421 C-395.22659465 560.11523357 -395.22675173 559.30882294 -395.22691357 558.47797561 C-395.2309139 537.0457494 -395.22541431 515.61352583 -395.21692628 494.18130124 C-395.21601935 491.87205801 -395.2151137 489.56281478 -395.21421105 487.25357155 C-395.21360994 485.72205521 -395.21300132 484.19053886 -395.21238514 482.65902252 C-395.20818337 472.03406735 -395.20757725 461.40911748 -395.20949063 450.78416174 C-395.21194564 437.08531587 -395.20776547 423.38649829 -395.19228063 409.68766008 C-395.18499644 403.09375708 -395.18091767 396.49988407 -395.18552399 389.90597534 C-395.2370692 305.50789437 -383.48197429 218.2541103 -329.90673828 149.26074219 C-328.42703309 147.26114058 -326.94789079 145.26112235 -325.46923828 143.26074219 C-309.76896449 122.4343961 -291.62165034 102.21360549 -270.90673828 86.26074219 C-269.74774764 85.31617839 -268.59170273 84.36799326 -267.43798828 83.41699219 C-258.94458857 76.44237556 -250.21398109 70.10375613 -240.90673828 64.26074219 C-240.16858887 63.79700195 -239.43043945 63.33326172 -238.66992188 62.85546875 C-201.88119228 39.92283156 -162.03915638 23.47427821 -119.90673828 13.26074219 C-118.84680664 12.9980957 -117.786875 12.73544922 -116.69482422 12.46484375 C-101.85652323 8.83929694 -86.98362249 6.41487391 -71.84423828 4.51074219 C-71.05007507 4.40969177 -70.25591187 4.30864136 -69.43768311 4.20452881 C-46.34112919 1.30632297 -23.27605769 -0.08230348 0 0 Z " fill="#FEFEFE" transform="translate(549.90673828125,398.7392578125)"/>
<path d="M0 0 C0.92419739 -0.00428009 1.84839478 -0.00856018 2.80059814 -0.01296997 C5.77076128 -0.02290686 8.74076099 -0.02303375 11.7109375 -0.01953125 C12.72448303 -0.01859467 13.73802856 -0.01765808 14.7822876 -0.01669312 C69.30058609 0.09291148 118.24099809 13.97861508 158.0859375 52.79296875 C169.59221924 64.35070289 178.7210345 77.66590538 186.0859375 92.16796875 C186.40256348 92.78349609 186.71918945 93.39902344 187.04541016 94.03320312 C206.66192141 132.59014744 206.54404849 173.85310329 206.47811151 216.09367537 C206.47196888 221.92496869 206.48004838 227.75623274 206.4875536 233.58752196 C206.50325185 246.22912105 206.50202171 258.87067433 206.49331686 271.51227765 C206.48573866 282.57335772 206.48381471 293.6344211 206.4873848 304.69550323 C206.48772853 305.80057656 206.48772853 305.80057656 206.48807921 306.92797461 C206.48901337 309.91928994 206.48996859 312.91060527 206.4909585 315.90192058 C206.50011245 343.89796169 206.49185113 371.89397378 206.47566781 399.89001041 C206.46142759 424.71331022 206.46271254 449.53656386 206.47705078 474.35986328 C206.49314397 502.31418923 206.4994689 530.26848962 206.49021399 558.22281957 C206.48925197 561.20711215 206.48831345 564.19140474 206.4873848 567.17569733 C206.48702895 568.27773711 206.48702895 568.27773711 206.48666591 569.40204033 C206.48326616 580.45362914 206.48722045 591.50519935 206.49482346 602.55678558 C206.50343131 615.1309167 206.5011927 627.70499525 206.48498122 640.27911988 C206.47713261 646.68595047 206.47394847 653.09268768 206.48392868 659.49951744 C206.49294679 665.37787302 206.48782695 671.25604969 206.47199602 677.13438931 C206.46867816 679.247043 206.47027363 681.35971218 206.47762339 683.47235569 C206.53474072 701.2725681 204.952737 718.85770609 200.8984375 736.23046875 C200.68977051 737.12564209 200.48110352 738.02081543 200.26611328 738.94311523 C193.16394172 767.88154947 178.69307427 793.81034445 158.0859375 815.16796875 C157.43238281 815.87308594 156.77882813 816.57820313 156.10546875 817.3046875 C131.95327511 842.69281429 96.98599873 858.92122006 62.7800293 864.39868164 C59.76795086 864.88554047 56.76457979 865.40361519 53.76342773 865.95361328 C42.21343026 868.00932337 31.05105423 868.61531008 19.3359375 868.48046875 C18.0331485 868.4720697 18.0331485 868.4720697 16.70404053 868.46350098 C-2.44807325 868.3396471 -21.09962475 867.51291156 -39.71923828 862.72119141 C-41.95258307 862.15825934 -44.19358394 861.6501449 -46.44140625 861.1484375 C-84.14216248 852.41585327 -119.49654457 828.75343519 -141.9140625 797.16796875 C-142.68105469 796.09417969 -143.44804688 795.02039062 -144.23828125 793.9140625 C-154.5306537 778.70003202 -161.7858607 761.75806758 -166.9140625 744.16796875 C-167.14603096 743.37414425 -167.37799943 742.58031975 -167.61699724 741.76243997 C-175.60202662 713.53691535 -174.49671561 684.31306223 -174.43696117 655.26169848 C-174.42875948 649.35008707 -174.43955043 643.43851554 -174.44955064 637.52691345 C-174.47046352 624.71404005 -174.46884885 611.90124711 -174.45723499 599.08836631 C-174.44712435 587.87728967 -174.44456837 576.66624232 -174.44932556 565.45516205 C-174.4496311 564.70799731 -174.44993664 563.96083258 -174.45025144 563.19102649 C-174.45149703 560.15716324 -174.45277066 557.1233 -174.4540905 554.08943678 C-174.46629146 525.70425717 -174.45528758 497.31912845 -174.43370291 468.93395671 C-174.41471654 443.77446604 -174.41642962 418.61505638 -174.43554688 393.45556641 C-174.45701197 365.11224368 -174.46543353 336.76896578 -174.45309782 308.42563605 C-174.45181516 305.39892818 -174.45056379 302.37222029 -174.44932556 299.34551239 C-174.44900925 298.60039577 -174.44869294 297.85527914 -174.44836705 297.08758322 C-174.44383711 285.88711432 -174.44910063 274.68667806 -174.45924377 263.48621368 C-174.47072949 250.74058256 -174.46771812 237.99504361 -174.4461208 225.24942383 C-174.43547948 218.75712836 -174.4313911 212.26496252 -174.44471741 205.77266502 C-174.45676514 199.81280486 -174.4498778 193.85325778 -174.4288072 187.89342543 C-174.4243931 185.75456459 -174.42648793 183.61567646 -174.43631035 181.47683361 C-174.64365431 132.51514983 -158.83305545 86.0664971 -124.45361328 50.6640625 C-92.16468219 18.56101418 -45.37908026 0.06393504 0 0 Z " fill="#000000" transform="translate(1483.9140625,580.83203125)"/>
</svg>
